<svg xmlns="http://www.w3.org/2000/svg" width="81.659" height="32" viewBox="0 0 81.659 32">
  <g id="Blogr_2" data-name="Blogr 2" transform="translate(0)" style="isolation: isolate">
    <path id="Blogr" d="M54.551,31.38A8.493,8.493,0,0,1,51.8,29.654a8.146,8.146,0,0,1-1.843-2.579l4.49-1.106a4.425,4.425,0,0,0,1.559,1.525,4.58,4.58,0,0,0,4.423-.033,4.016,4.016,0,0,0,1.491-1.642,5.368,5.368,0,0,0,.535-2.462V21.914a6.321,6.321,0,0,1-2.3,1.894,6.834,6.834,0,0,1-3.065.687,7.4,7.4,0,0,1-3.134-.67,7.7,7.7,0,0,1-2.529-1.859,8.715,8.715,0,0,1-1.676-2.781,9.608,9.608,0,0,1-.6-3.434,9.82,9.82,0,0,1,.62-3.535,8.6,8.6,0,0,1,1.742-2.831,8.244,8.244,0,0,1,2.614-1.894A7.629,7.629,0,0,1,57.365,6.8a6.8,6.8,0,0,1,3.083.687,6.009,6.009,0,0,1,2.278,1.993l.1-2.178H67.15V22.886A10.155,10.155,0,0,1,66.5,26.6a8.179,8.179,0,0,1-4.725,4.742A9.926,9.926,0,0,1,58.1,32,9.635,9.635,0,0,1,54.551,31.38ZM33.776,24.8a8.814,8.814,0,0,1-4.842-4.926,9.878,9.878,0,0,1-.687-3.72,9.539,9.539,0,0,1,.7-3.7,9.22,9.22,0,0,1,1.96-2.966A8.878,8.878,0,0,1,33.86,7.506a9.536,9.536,0,0,1,3.7-.7,9.325,9.325,0,0,1,3.652.7,8.854,8.854,0,0,1,4.842,4.909,9.753,9.753,0,0,1,.687,3.7,9.664,9.664,0,0,1-.7,3.72,9.156,9.156,0,0,1-1.96,2.982A8.89,8.89,0,0,1,41.131,24.8a9.552,9.552,0,0,1-3.7.7A9.341,9.341,0,0,1,33.776,24.8ZM70.9,25V7.3h4.322l.168,2.681A5.187,5.187,0,0,1,77.2,7.824a4.749,4.749,0,0,1,2.681-.753,5.327,5.327,0,0,1,.938.084,5.074,5.074,0,0,1,.838.218L81.156,12a3.489,3.489,0,0,0-.753-.184,6.125,6.125,0,0,0-.788-.05,3.748,3.748,0,0,0-2.983,1.19,4.96,4.96,0,0,0-1.039,3.367V25Zm-50.43,0V0h4.691V25ZM0,25V1.206H8.645a10.548,10.548,0,0,1,4.172.754A6.114,6.114,0,0,1,15.531,4.1a5.631,5.631,0,0,1,.955,3.267,5.94,5.94,0,0,1-.737,3A5.261,5.261,0,0,1,13.671,12.4a5.786,5.786,0,0,1,2.815,2.228,6.4,6.4,0,0,1,1.005,3.6,6.025,6.025,0,0,1-1.073,3.585A6.986,6.986,0,0,1,13.4,24.16,11.54,11.54,0,0,1,8.813,25Z" transform="translate(0)" fill="#fff"/>
  </g>
</svg>
